TITLE ""
FILE "P1Q_t_1178-1187.mp3" MP3
  TRACK 01 AUDIO
    TITLE "P1Q_t_1178-1187_01"
    INDEX 01 00:00:00
  TRACK 02 AUDIO
    TITLE "P1Q_t_1178-1187_02"
    INDEX 01 00:01:14
  TRACK 03 AUDIO
    TITLE "P1Q_t_1178-1187_03"
    INDEX 01 00:01:33
  TRACK 04 AUDIO
    TITLE "P1Q_t_1178-1187_04"
    INDEX 01 00:06:11
  TRACK 05 AUDIO
    TITLE "P1Q_t_1178-1187_05"
    INDEX 01 00:06:32
  TRACK 06 AUDIO
    TITLE "P1Q_t_1178-1187_06"
    INDEX 01 00:10:20
  TRACK 07 AUDIO
    TITLE "P1Q_t_1178-1187_07"
    INDEX 01 00:10:69
  TRACK 08 AUDIO
    TITLE "P1Q_t_1178-1187_08"
    INDEX 01 00:12:10
  TRACK 09 AUDIO
    TITLE "P1Q_t_1178-1187_09"
    INDEX 01 00:12:31
  TRACK 10 AUDIO
    TITLE "P1Q_t_1178-1187_10"
    INDEX 01 00:14:03
  TRACK 11 AUDIO
    TITLE "P1Q_t_1178-1187_11"
    INDEX 01 00:14:20
  TRACK 12 AUDIO
    TITLE "P1Q_t_1178-1187_12"
    INDEX 01 00:18:22
  TRACK 13 AUDIO
    TITLE "P1Q_t_1178-1187_13"
    INDEX 01 00:18:69
  TRACK 14 AUDIO
    TITLE "P1Q_t_1178-1187_14"
    INDEX 01 00:20:05
  TRACK 15 AUDIO
    TITLE "P1Q_t_1178-1187_15"
    INDEX 01 00:20:29
  TRACK 16 AUDIO
    TITLE "P1Q_t_1178-1187_16"
    INDEX 01 00:22:69
  TRACK 17 AUDIO
    TITLE "P1Q_t_1178-1187_17"
    INDEX 01 00:23:11
  TRACK 18 AUDIO
    TITLE "P1Q_t_1178-1187_18"
    INDEX 01 00:27:31
  TRACK 19 AUDIO
    TITLE "P1Q_t_1178-1187_19"
    INDEX 01 00:28:03
  TRACK 20 AUDIO
    TITLE "P1Q_t_1178-1187_20"
    INDEX 01 00:29:30
  TRACK 21 AUDIO
    TITLE "P1Q_t_1178-1187_21"
    INDEX 01 00:29:49
  TRACK 22 AUDIO
    TITLE "P1Q_t_1178-1187_22"
    INDEX 01 00:32:08
  TRACK 23 AUDIO
    TITLE "P1Q_t_1178-1187_23"
    INDEX 01 00:32:28
  TRACK 24 AUDIO
    TITLE "P1Q_t_1178-1187_24"
    INDEX 01 00:37:70
  TRACK 25 AUDIO
    TITLE "P1Q_t_1178-1187_25"
    INDEX 01 00:38:42
  TRACK 26 AUDIO
    TITLE "P1Q_t_1178-1187_26"
    INDEX 01 00:39:59
  TRACK 27 AUDIO
    TITLE "P1Q_t_1178-1187_27"
    INDEX 01 00:40:04
  TRACK 28 AUDIO
    TITLE "P1Q_t_1178-1187_28"
    INDEX 01 00:42:64
  TRACK 29 AUDIO
    TITLE "P1Q_t_1178-1187_29"
    INDEX 01 00:43:08
  TRACK 30 AUDIO
    TITLE "P1Q_t_1178-1187_30"
    INDEX 01 00:46:57
  TRACK 31 AUDIO
    TITLE "P1Q_t_1178-1187_31"
    INDEX 01 00:47:27
  TRACK 32 AUDIO
    TITLE "P1Q_t_1178-1187_32"
    INDEX 01 00:48:45
  TRACK 33 AUDIO
    TITLE "P1Q_t_1178-1187_33"
    INDEX 01 00:48:66
  TRACK 34 AUDIO
    TITLE "P1Q_t_1178-1187_34"
    INDEX 01 00:51:49
  TRACK 35 AUDIO
    TITLE "P1Q_t_1178-1187_35"
    INDEX 01 00:51:68
  TRACK 36 AUDIO
    TITLE "P1Q_t_1178-1187_36"
    INDEX 01 00:57:42
  TRACK 37 AUDIO
    TITLE "P1Q_t_1178-1187_37"
    INDEX 01 00:58:12
  TRACK 38 AUDIO
    TITLE "P1Q_t_1178-1187_38"
    INDEX 01 00:59:54
  TRACK 39 AUDIO
    TITLE "P1Q_t_1178-1187_39"
    INDEX 01 00:59:74
  TRACK 40 AUDIO
    TITLE "P1Q_t_1178-1187_40"
    INDEX 01 01:01:12
  TRACK 41 AUDIO
    TITLE "P1Q_t_1178-1187_41"
    INDEX 01 01:01:33
  TRACK 42 AUDIO
    TITLE "P1Q_t_1178-1187_42"
    INDEX 01 01:06:27
  TRACK 43 AUDIO
    TITLE "P1Q_t_1178-1187_43"
    INDEX 01 01:06:72
  TRACK 44 AUDIO
    TITLE "P1Q_t_1178-1187_44"
    INDEX 01 01:08:20
  TRACK 45 AUDIO
    TITLE "P1Q_t_1178-1187_45"
    INDEX 01 01:08:41
  TRACK 46 AUDIO
    TITLE "P1Q_t_1178-1187_46"
    INDEX 01 01:11:55
  TRACK 47 AUDIO
    TITLE "P1Q_t_1178-1187_47"
    INDEX 01 01:12:00
  TRACK 48 AUDIO
    TITLE "P1Q_t_1178-1187_48"
    INDEX 01 01:16:19
  TRACK 49 AUDIO
    TITLE "P1Q_t_1178-1187_49"
    INDEX 01 01:16:64
  TRACK 50 AUDIO
    TITLE "P1Q_t_1178-1187_50"
    INDEX 01 01:17:74
  TRACK 51 AUDIO
    TITLE "P1Q_t_1178-1187_51"
    INDEX 01 01:18:20
  TRACK 52 AUDIO
    TITLE "P1Q_t_1178-1187_52"
    INDEX 01 01:20:49
  TRACK 53 AUDIO
    TITLE "P1Q_t_1178-1187_53"
    INDEX 01 01:20:68
  TRACK 54 AUDIO
    TITLE "P1Q_t_1178-1187_54"
    INDEX 01 01:23:64
  TRACK 55 AUDIO
    TITLE "P1Q_t_1178-1187_55"
    INDEX 01 01:24:37
  TRACK 56 AUDIO
    TITLE "P1Q_t_1178-1187_56"
    INDEX 01 01:25:58
  TRACK 57 AUDIO
    TITLE "P1Q_t_1178-1187_57"
    INDEX 01 01:26:04
  TRACK 58 AUDIO
    TITLE "P1Q_t_1178-1187_58"
    INDEX 01 01:29:00
  TRACK 59 AUDIO
    TITLE "P1Q_t_1178-1187_59"
    INDEX 01 01:29:20
  TRACK 60 AUDIO
    TITLE "P1Q_t_1178-1187_60"
    INDEX 01 01:33:43
